<?xml version="1.0" encoding="iso-8859-1"?>
<!-- Uploaded to: SVG Repo, www.svgrepo.com, Generator: SVG Repo Mixer Tools -->
<svg fill="#0a4bff" height="800px" width="800px" version="1.1" id="Layer_1" xmlns="http://www.w3.org/2000/svg" xmlns:xlink="http://www.w3.org/1999/xlink" 
	 viewBox="0 0 512 512" xml:space="preserve">
<g>
	<g>
		<g>
			<path d="M438.251,0H320H192H73.749C33.018,0,0,33.018,0,73.749v364.501C0,478.982,33.018,512,73.749,512H192
				c11.782,0,21.333-9.551,21.333-21.333s-9.551-21.333-21.333-21.333H73.749c-17.167,0-31.083-13.915-31.083-31.083V73.749
				c0-17.167,13.915-31.083,31.083-31.083h96.917v106.667c0,17.039,18.99,27.202,33.167,17.75L256,132.306l52.166,34.778
				c14.177,9.451,33.167-0.712,33.167-17.75V42.667h96.917c17.167,0,31.083,13.915,31.083,31.083v75.584
				c0,11.782,9.551,21.333,21.333,21.333S512,161.115,512,149.333V73.749C512,33.018,478.982,0,438.251,0z M298.667,109.472
				l-30.833-20.555c-7.166-4.777-16.501-4.777-23.667,0l-30.833,20.555V42.667h85.333V109.472z"/>
			<path d="M447.587,358.498c-0.071-0.358-0.169-0.704-0.258-1.055c-0.081-0.324-0.152-0.649-0.249-0.969
				c-0.104-0.344-0.233-0.677-0.354-1.013c-0.115-0.32-0.22-0.642-0.35-0.957c-0.13-0.314-0.283-0.615-0.428-0.921
				c-0.153-0.325-0.297-0.653-0.468-0.971c-0.157-0.293-0.336-0.572-0.506-0.857c-0.186-0.312-0.363-0.628-0.566-0.932
				c-0.211-0.315-0.446-0.612-0.673-0.915c-0.19-0.254-0.367-0.515-0.57-0.762c-0.443-0.539-0.909-1.058-1.402-1.551
				c-0.004-0.004-0.007-0.008-0.011-0.012l-42.667-42.667c-8.331-8.331-21.839-8.331-30.17,0c-8.331,8.331-8.331,21.839,0,30.17
				l6.248,6.248h-76.497c-11.782,0-21.333,9.551-21.333,21.333S286.885,384,298.667,384h76.497l-6.248,6.248
				c-8.331,8.331-8.331,21.839,0,30.17c8.331,8.331,21.839,8.331,30.17,0l42.667-42.667c0.008-0.008,0.014-0.016,0.021-0.023
				c0.488-0.49,0.952-1.004,1.392-1.54c0.204-0.248,0.38-0.509,0.571-0.764c0.226-0.302,0.461-0.598,0.671-0.913
				c0.204-0.304,0.38-0.62,0.566-0.932c0.17-0.285,0.349-0.564,0.506-0.857c0.17-0.318,0.315-0.646,0.468-0.971
				c0.145-0.306,0.297-0.607,0.428-0.921c0.13-0.315,0.236-0.637,0.35-0.957c0.121-0.337,0.25-0.669,0.354-1.013
				c0.097-0.32,0.168-0.646,0.249-0.969c0.089-0.351,0.187-0.698,0.258-1.055c0.074-0.375,0.118-0.753,0.173-1.13
				c0.044-0.311,0.104-0.617,0.135-0.933c0.138-1.4,0.138-2.811,0-4.211c-0.031-0.315-0.09-0.621-0.135-0.933
				C447.705,359.251,447.661,358.873,447.587,358.498z"/>
			<path d="M362.667,213.333c-82.481,0-149.333,66.853-149.333,149.333S280.186,512,362.667,512S512,445.147,512,362.667
				S445.147,213.333,362.667,213.333z M362.667,469.333C303.75,469.333,256,421.583,256,362.667C256,303.75,303.75,256,362.667,256
				c58.917,0,106.667,47.75,106.667,106.667C469.333,421.583,421.583,469.333,362.667,469.333z"/>
		</g>
	</g>
</g>
</svg>